# xmcd
#
# Track frame offsets: 
#        150
#        10402
#        25616
#        40878
#        58304
#        75373
#        88981
#        113460
#        126602
#        139279
#        154997
#        165699
#        186089
#        201523
#        214051
#
# Disc length: 3007 seconds
#
# Revision: 14
# Processed by: cddbd v1.5.2PL0 Copyright (c) Steve Scherf et al.
# Submitted via: ExactAudioCopyFreeDBPlugin 1.0
#
DISCID=d60bbd0f
DTITLE=Various Artist - Jingle Blues:  House of Blues Christmas Colle
DTITLE=ction
DYEAR=1998
DGENRE=Holiday
TTITLE0=Mabel Scott - Boogie Woogie Santa Claus
TTITLE1=Eddie C. Campbell - Santa's Messin' with the Kid
TTITLE2=Louis Jordan - Santa Claus, Santa Claus
TTITLE3=Albert King - Santa Claus Wants Some Lovin'
TTITLE4=Lightnin' Hopkins - Santa
TTITLE5=Floyd Dixon - Empty Stocking Blues
TTITLE6=Earl King - Santa Don't Let Me Down
TTITLE7=Amos Milburn - Let's Make Christmas Merry, Baby
TTITLE8=B. B. King - Christmas Celebration
TTITLE9=John Lee Hooker - Blues for Christmas
TTITLE10=Lowell Fulson - I Want to Spend Christmas with You
TTITLE11=Anson Funderburgh and the Rockets - Sam's Christmas Blues
TTITLE12=Bessie Smith - At the Christmas Ball
TTITLE13=Jimmy Witherspoon - How I Hate to See Christmas Come Around
TTITLE14=Sonny Boy Williamson - Sonny Boy's Christmas Blues
EXTD=LABEL =Platinum Entertainment, Inc.\nID =5141614072\nUPC =7514
EXTD=16-1407-28\nCOPYRIGHT =1998\n*****\nSubtitle ="House of Blues C
EXTD=hristmas Collection"
EXTT0=Recorded 1955\n\nDick McNally - vocals, trumpet\nArthur Hubbard 
EXTT0=trombone\nNat O'Toole - saxophone\nPaul Thomas - saxophone\nPe
EXTT0=ter Piercy - piano\nJohnny Blevins - guitar
EXTT1=Recorded 1977\n\nMelvin Brown - piano\nSylvester Boines - bass\n
EXTT1=Lester Dorsie - drums
EXTT2=Recorded December 17, 1968\n\nLouis Jordan - vocals\nJulius "Bil
EXTT2=ly" Brooks - trumpet\nHerbert Anderson - trumpet\nTeddy Edwards 
EXTT2=tenor sax\nJohn Houston - piano\nDallas Bartley - bass\nBilly 
EXTT2=Moore - drums
EXTT3=Recorded 1974 at Stax Studios, Memphis, TN\n\nAlbert King - guit
EXTT3=ar, vocals
EXTT4=Recorded November, 1960 in New York City, NY\n\nLightnin' Hopkin
EXTT4=s - vocals, guitar
EXTT5=Recorded September 19, 1950 at Radio Recorders, Hollywood, CA\n\n
EXTT5=Floyd Dixon - vocals\nJohnny Moore - guitar\nOscar moore - guita
EXTT5=r\nJohnny Miller - bass\nEllis Walsh - drums
EXTT6=Recorded December, 1992 at Ultrasonic Studios, New Orleans, LA\n
EXTT6=\nEarl King - vocals, guitar\nDavid Torkanowsky - piano\nSammy B
EXTT6=erfect - organ\nGeorge Porter, Jr. - bass\nHerman V. Ernest - dr
EXTT6=ums
EXTT7=Recorded October 1, 1949 in Los Angeles, CA\n\nAmos Milburn - vo
EXTT7=cals, piano\nDon Wilkerson - tenor sax\nBilly Smith - tenor sax\n
EXTT7=Willie Simpson, Jr. - baritone sax\nJohnny Brown - guitar\nHarpe
EXTT7=r Cosby - bass\ncalvinVaughan - drums
EXTT8=B. B. King - vocals, guitar\nKenny Sands - trumpet\nHenry Boozie
EXTT8=r - trumpet\nPluma Davis - trombone\nLawrence Burdine - alto sax
EXTT8=\nJohnny Board - tenor sax\nBarney Hubert - baritone sax\nLloyd 
EXTT8=Glenn - piano\nMarshallYork - bass\nSonny Freeman - drums
EXTT9=John Lee Hooker - vocals
EXTT10=Recorded 1967 in Los Angeles, CA\n\nLowell Fulson - vocals
EXTT11=Recorded June, 1995 at Ultrasonic Studios, New Orleans, LA\n\nS
EXTT11=am Myers - vocals\nAnson Funderburgh - guitar\nMike Kindred - o
EXTT11=rgan\nPat Whitefield - bass\nDanny Cochran - drums
EXTT12=Recorded November 18, 1925\n\nBessie Smith - vocals, dialoge\nL
EXTT12=ouis Armstrong - coronet\nFred Longshaw - piano\nCharlie Green 
EXTT12=trombone
EXTT13=Recorded October 18, 1947 in Los angeles, CA\n\nJimmy Witherspo
EXTT13=on - vocals\nForrest Powell - trumpet\nFrank Sleet - alto sax\n
EXTT13=Charlie Thomas - tenor sax\nFrankie Whyte - piano\nLouis Speigi
EXTT13=ner - guitar\nBenny Booker - bass\nEdward Smith - drums
EXTT14=Recorded August 5, 1951 in Jackson, MS\n\nSonny Boy Williamson 
EXTT14=vocals, harmonica\nWillie Love - piano\nDave Campbell - piano
EXTT14=\nElmore James - guitar\nWillie Wilkins - guitar\nLeonard Ware 
EXTT14=bass
PLAYORDER=
